<svg id="visual" viewBox="0 0 1790 900" width="1790" height="900" xmlns="http://www.w3.org/2000/svg" xmlns:xlink="http://www.w3.org/1999/xlink" version="1.1"><rect x="0" y="0" width="1790" height="900" fill="#0a5a23"></rect><defs><linearGradient id="grad1_0" x1="49.7%" y1="100%" x2="100%" y2="0%"><stop offset="10.222222222222221%" stop-color="#f7d49f" stop-opacity="1"></stop><stop offset="89.77777777777777%" stop-color="#f7d49f" stop-opacity="1"></stop></linearGradient></defs><defs><linearGradient id="grad1_1" x1="49.7%" y1="100%" x2="100%" y2="0%"><stop offset="10.222222222222221%" stop-color="#f7d49f" stop-opacity="1"></stop><stop offset="89.77777777777777%" stop-color="#8c9652" stop-opacity="1"></stop></linearGradient></defs><defs><linearGradient id="grad1_2" x1="49.7%" y1="100%" x2="100%" y2="0%"><stop offset="10.222222222222221%" stop-color="#0a5a23" stop-opacity="1"></stop><stop offset="89.77777777777777%" stop-color="#8c9652" stop-opacity="1"></stop></linearGradient></defs><defs><linearGradient id="grad2_0" x1="0%" y1="100%" x2="50.3%" y2="0%"><stop offset="10.222222222222221%" stop-color="#f7d49f" stop-opacity="1"></stop><stop offset="89.77777777777777%" stop-color="#f7d49f" stop-opacity="1"></stop></linearGradient></defs><defs><linearGradient id="grad2_1" x1="0%" y1="100%" x2="50.3%" y2="0%"><stop offset="10.222222222222221%" stop-color="#8c9652" stop-opacity="1"></stop><stop offset="89.77777777777777%" stop-color="#f7d49f" stop-opacity="1"></stop></linearGradient></defs><defs><linearGradient id="grad2_2" x1="0%" y1="100%" x2="50.3%" y2="0%"><stop offset="10.222222222222221%" stop-color="#8c9652" stop-opacity="1"></stop><stop offset="89.77777777777777%" stop-color="#0a5a23" stop-opacity="1"></stop></linearGradient></defs><g transform="translate(1790, 900)"><path d="M-810 0C-790 -85.2 -770.1 -170.4 -727.6 -236.4C-685.1 -302.4 -620.1 -349.1 -580.9 -422C-541.7 -494.9 -528.3 -593.9 -476.1 -655.3C-423.9 -716.7 -332.7 -740.4 -246.9 -759.9C-161.1 -779.4 -80.5 -794.7 0 -810L0 0Z" fill="#537836"></path><path d="M-540 0C-526.7 -56.8 -513.4 -113.6 -485 -157.6C-456.7 -201.6 -413.4 -232.8 -387.2 -281.4C-361.1 -329.9 -352.2 -396 -317.4 -436.9C-282.6 -477.8 -221.8 -493.6 -164.6 -506.6C-107.4 -519.6 -53.7 -529.8 0 -540L0 0Z" fill="#c2b475"></path><path d="M-270 0C-263.3 -28.4 -256.7 -56.8 -242.5 -78.8C-228.4 -100.8 -206.7 -116.4 -193.6 -140.7C-180.6 -165 -176.1 -198 -158.7 -218.4C-141.3 -238.9 -110.9 -246.8 -82.3 -253.3C-53.7 -259.8 -26.8 -264.9 0 -270L0 0Z" fill="#f7d49f"></path></g><g transform="translate(0, 0)"><path d="M810 0C804.6 84.7 799.1 169.5 770.4 250.3C741.6 331.1 689.4 408 619.7 450.2C550 492.4 462.8 499.9 402.6 554.2C342.5 608.4 309.5 709.5 246.9 759.9C184.3 810.3 92.2 810.2 0 810L0 0Z" fill="#537836"></path><path d="M540 0C536.4 56.5 532.8 113 513.6 166.9C494.4 220.8 459.6 272 413.1 300.2C366.7 328.3 308.5 333.3 268.4 369.5C228.3 405.6 206.3 473 164.6 506.6C122.9 540.2 61.4 540.1 0 540L0 0Z" fill="#c2b475"></path><path d="M270 0C268.2 28.2 266.4 56.5 256.8 83.4C247.2 110.4 229.8 136 206.6 150.1C183.3 164.1 154.3 166.6 134.2 184.7C114.2 202.8 103.2 236.5 82.3 253.3C61.4 270.1 30.7 270.1 0 270L0 0Z" fill="#f7d49f"></path></g></svg>