<svg id="visual" viewBox="0 0 1790 900" width="1790" height="900" xmlns="http://www.w3.org/2000/svg" xmlns:xlink="http://www.w3.org/1999/xlink" version="1.1"><rect x="0" y="0" width="1790" height="900" fill="#166e32"></rect><defs><linearGradient id="grad1_0" x1="49.7%" y1="100%" x2="100%" y2="0%"><stop offset="10.222222222222221%" stop-color="#f4f2ef" stop-opacity="1"></stop><stop offset="89.77777777777777%" stop-color="#f4f2ef" stop-opacity="1"></stop></linearGradient></defs><defs><linearGradient id="grad1_1" x1="49.7%" y1="100%" x2="100%" y2="0%"><stop offset="10.222222222222221%" stop-color="#f4f2ef" stop-opacity="1"></stop><stop offset="89.77777777777777%" stop-color="#a2aa7e" stop-opacity="1"></stop></linearGradient></defs><defs><linearGradient id="grad1_2" x1="49.7%" y1="100%" x2="100%" y2="0%"><stop offset="10.222222222222221%" stop-color="#166e32" stop-opacity="1"></stop><stop offset="89.77777777777777%" stop-color="#a2aa7e" stop-opacity="1"></stop></linearGradient></defs><defs><linearGradient id="grad2_0" x1="0%" y1="100%" x2="50.3%" y2="0%"><stop offset="10.222222222222221%" stop-color="#f4f2ef" stop-opacity="1"></stop><stop offset="89.77777777777777%" stop-color="#f4f2ef" stop-opacity="1"></stop></linearGradient></defs><defs><linearGradient id="grad2_1" x1="0%" y1="100%" x2="50.3%" y2="0%"><stop offset="10.222222222222221%" stop-color="#a2aa7e" stop-opacity="1"></stop><stop offset="89.77777777777777%" stop-color="#f4f2ef" stop-opacity="1"></stop></linearGradient></defs><defs><linearGradient id="grad2_2" x1="0%" y1="100%" x2="50.3%" y2="0%"><stop offset="10.222222222222221%" stop-color="#a2aa7e" stop-opacity="1"></stop><stop offset="89.77777777777777%" stop-color="#166e32" stop-opacity="1"></stop></linearGradient></defs><g transform="translate(1790, 900)"><path d="M-810 0C-809.1 -90.4 -808.1 -180.7 -770.4 -250.3C-732.6 -319.9 -658 -368.6 -606.8 -440.8C-555.6 -513 -527.8 -608.7 -461.4 -635.1C-395 -661.5 -290.1 -618.6 -206.7 -636.3C-123.4 -653.9 -61.7 -731.9 0 -810L0 0Z" fill="#688c52"></path><path d="M-540 0C-539.4 -60.2 -538.8 -120.5 -513.6 -166.9C-488.4 -213.2 -438.6 -245.8 -404.5 -293.9C-370.4 -342 -351.9 -405.8 -307.6 -423.4C-263.4 -441 -193.4 -412.4 -137.8 -424.2C-82.3 -435.9 -41.1 -488 0 -540L0 0Z" fill="#d1ccb3"></path><path d="M-270 0C-269.7 -30.1 -269.4 -60.2 -256.8 -83.4C-244.2 -106.6 -219.3 -122.9 -202.3 -146.9C-185.2 -171 -175.9 -202.9 -153.8 -211.7C-131.7 -220.5 -96.7 -206.2 -68.9 -212.1C-41.1 -218 -20.6 -244 0 -270L0 0Z" fill="#f4f2ef"></path></g><g transform="translate(0, 0)"><path d="M810 0C760.4 68.8 710.9 137.5 697.1 226.5C683.4 315.5 705.4 424.7 655.3 476.1C605.2 527.5 483 521.2 405.6 558.2C328.2 595.2 295.6 675.5 235.5 724.7C175.3 773.9 87.7 791.9 0 810L0 0Z" fill="#688c52"></path><path d="M540 0C507 45.8 473.9 91.7 464.7 151C455.6 210.3 470.3 283.1 436.9 317.4C403.5 351.7 322 347.5 270.4 372.1C218.8 396.8 197.1 450.3 157 483.1C116.9 515.9 58.4 528 0 540L0 0Z" fill="#d1ccb3"></path><path d="M270 0C253.5 22.9 237 45.8 232.4 75.5C227.8 105.2 235.1 141.6 218.4 158.7C201.7 175.8 161 173.7 135.2 186.1C109.4 198.4 98.5 225.2 78.5 241.6C58.4 258 29.2 264 0 270L0 0Z" fill="#f4f2ef"></path></g></svg>